<svg width="13" height="11" viewBox="0 0 13 11" fill="none" xmlns="http://www.w3.org/2000/svg">
<path d="M11.4197 8.09624H3.8191C3.73758 8.09624 3.66546 8.07115 3.60275 8.02098C3.54004 7.97081 3.49928 7.90497 3.48046 7.82344L2.02243 1.37988H0.31042C0.222624 1.36734 0.148939 1.32815 0.0893632 1.2623C0.0297877 1.19645 0 1.11963 0 1.03184C0 0.944042 0.0297877 0.867221 0.0893632 0.801374C0.148939 0.735528 0.222624 0.696333 0.31042 0.683791H2.29522C2.37675 0.683791 2.44887 0.708876 2.51158 0.759044C2.57429 0.809213 2.61505 0.87506 2.63386 0.956584L4.0919 7.40014H11.1469L12.1816 2.83792H4.59045C4.58418 2.83792 4.57634 2.83948 4.56693 2.84262C4.55753 2.84575 4.54969 2.84732 4.54342 2.84732C4.44935 2.84732 4.36782 2.81283 4.29884 2.74385C4.22986 2.67487 4.19537 2.59021 4.19537 2.48987C4.19537 2.3958 4.22986 2.31428 4.29884 2.2453C4.36782 2.17631 4.44935 2.14182 4.54342 2.14182C4.54969 2.14182 4.55753 2.14182 4.56693 2.14182C4.57634 2.14182 4.58418 2.14496 4.59045 2.15123H12.6143C12.7084 2.15123 12.7899 2.18415 12.8589 2.25C12.9279 2.31585 12.9624 2.39894 12.9624 2.49928C12.9624 2.51182 12.9608 2.52436 12.9577 2.5369C12.9545 2.54944 12.953 2.56199 12.953 2.57453L11.7583 7.82344C11.7395 7.90497 11.7003 7.97081 11.6407 8.02098C11.5812 8.07115 11.5075 8.09624 11.4197 8.09624ZM6.30246 9.4602C6.30246 9.6985 6.21937 9.90075 6.05318 10.0669C5.887 10.2331 5.68476 10.3162 5.44645 10.3162C5.20815 10.3162 5.00591 10.2331 4.83973 10.0669C4.67354 9.90075 4.59045 9.6985 4.59045 9.4602C4.59045 9.2219 4.67354 9.01966 4.83973 8.85347C5.00591 8.68729 5.20815 8.6042 5.44645 8.6042C5.68476 8.6042 5.887 8.68729 6.05318 8.85347C6.21937 9.01966 6.30246 9.2219 6.30246 9.4602ZM10.6483 9.4602C10.6483 9.6985 10.5652 9.90075 10.3991 10.0669C10.2329 10.2331 10.0306 10.3162 9.79233 10.3162C9.5603 10.3162 9.35962 10.2331 9.1903 10.0669C9.02098 9.90075 8.93632 9.6985 8.93632 9.4602C8.93632 9.2219 9.02098 9.01966 9.1903 8.85347C9.35962 8.68729 9.5603 8.6042 9.79233 8.6042C10.0306 8.6042 10.2329 8.68729 10.3991 8.85347C10.5652 9.01966 10.6483 9.2219 10.6483 9.4602Z" fill="#999999"/>
</svg>
