<svg width="17" height="16" viewBox="0 0 17 16" fill="none" xmlns="http://www.w3.org/2000/svg">
<path d="M7.15308 12.4375C6.29891 12.4375 5.49683 12.2708 4.74683 11.9375C3.98641 11.6146 3.32495 11.1719 2.76245 10.6094C2.19995 10.0469 1.75724 9.39062 1.43433 8.64062C1.11141 7.88021 0.949951 7.07292 0.949951 6.21875C0.949951 5.35417 1.11141 4.54688 1.43433 3.79688C1.76766 3.04688 2.21558 2.39062 2.77808 1.82812C3.34058 1.26562 3.99683 0.817708 4.74683 0.484375C5.49683 0.161458 6.30412 0 7.1687 0C8.02287 0 8.83016 0.161458 9.59058 0.484375C10.3406 0.817708 10.9968 1.26562 11.5593 1.82812C12.1218 2.39062 12.5645 3.04688 12.8875 3.79688C13.2208 4.54688 13.3875 5.35417 13.3875 6.21875C13.3875 7.07292 13.2234 7.8776 12.8953 8.63281C12.5671 9.38802 12.1218 10.0469 11.5593 10.6094C10.9968 11.1719 10.338 11.6172 9.58276 11.9453C8.82756 12.2734 8.02287 12.4375 7.1687 12.4375C7.1687 12.4375 7.16349 12.4375 7.15308 12.4375ZM7.15308 0.859375C6.42391 0.869792 5.7312 1.01562 5.07495 1.29688C4.42912 1.57812 3.86662 1.96094 3.38745 2.44531C2.90828 2.92969 2.52808 3.5 2.24683 4.15625C1.96558 4.80208 1.82495 5.49479 1.82495 6.23438C1.82495 6.97396 1.96558 7.66667 2.24683 8.3125C2.52808 8.96875 2.91089 9.53906 3.39526 10.0234C3.87964 10.5078 4.44995 10.8906 5.1062 11.1719C5.75203 11.4531 6.44995 11.5938 7.19995 11.5938C7.93953 11.5938 8.63224 11.4531 9.27808 11.1719C9.93433 10.8906 10.5046 10.5078 10.989 10.0234C11.4734 9.53906 11.8562 8.96875 12.1375 8.3125C12.4187 7.66667 12.5593 6.97396 12.5593 6.23438C12.5593 5.48438 12.4187 4.78385 12.1375 4.13281C11.8562 3.48177 11.4708 2.91146 10.9812 2.42188C10.4916 1.94271 9.92131 1.5625 9.27026 1.28125C8.61922 1 7.92912 0.859375 7.19995 0.859375C7.18953 0.859375 7.18172 0.859375 7.17651 0.859375C7.17131 0.859375 7.16349 0.859375 7.15308 0.859375ZM15.2781 16L11.4812 12.2031L13.1531 10.5469L16.95 14.3438L16.3406 14.9531L13.1531 11.7656L12.7 12.2031L15.8875 15.3906L15.2781 16ZM10.95 10.625L11.5593 10L12.9343 11.375L12.3093 11.9844L10.95 10.625Z" fill="#999999"/>
</svg>
