<svg width="13" height="10" viewBox="0 0 13 10" fill="none" xmlns="http://www.w3.org/2000/svg">
<path d="M11.4197 7.41244H3.8191C3.73758 7.41244 3.66546 7.38736 3.60275 7.33719C3.54004 7.28702 3.49928 7.22118 3.48046 7.13965L2.02243 0.696092H0.31042C0.222624 0.683549 0.148939 0.644355 0.0893632 0.578508C0.0297877 0.512662 0 0.435841 0 0.348045C0 0.26025 0.0297877 0.183429 0.0893632 0.117582C0.148939 0.0517357 0.222624 0.0125413 0.31042 -9.53674e-07H2.29522C2.37675 -9.53674e-07 2.44887 0.0250835 2.51158 0.0752523C2.57429 0.125421 2.61505 0.191268 2.63386 0.272792L4.0919 6.71635H11.1469L12.1816 2.15412H4.59045C4.58418 2.15412 4.57634 2.15569 4.56693 2.15883C4.55753 2.16196 4.54969 2.16353 4.54342 2.16353C4.44935 2.16353 4.36782 2.12904 4.29884 2.06006C4.22986 1.99107 4.19537 1.90641 4.19537 1.80608C4.19537 1.71201 4.22986 1.63049 4.29884 1.5615C4.36782 1.49252 4.44935 1.45803 4.54342 1.45803C4.54969 1.45803 4.55753 1.45803 4.56693 1.45803C4.57634 1.45803 4.58418 1.46117 4.59045 1.46744H12.6143C12.7084 1.46744 12.7899 1.50036 12.8589 1.56621C12.9279 1.63205 12.9624 1.71515 12.9624 1.81548C12.9624 1.82803 12.9608 1.84057 12.9577 1.85311C12.9545 1.86565 12.953 1.87819 12.953 1.89074L11.7583 7.13965C11.7395 7.22118 11.7003 7.28702 11.6407 7.33719C11.5812 7.38736 11.5075 7.41244 11.4197 7.41244ZM6.30246 8.77641C6.30246 9.01471 6.21937 9.21696 6.05318 9.38314C5.887 9.54932 5.68476 9.63242 5.44645 9.63242C5.20815 9.63242 5.00591 9.54932 4.83973 9.38314C4.67354 9.21696 4.59045 9.01471 4.59045 8.77641C4.59045 8.53811 4.67354 8.33586 4.83973 8.16968C5.00591 8.0035 5.20815 7.9204 5.44645 7.9204C5.68476 7.9204 5.887 8.0035 6.05318 8.16968C6.21937 8.33586 6.30246 8.53811 6.30246 8.77641ZM10.6483 8.77641C10.6483 9.01471 10.5652 9.21696 10.3991 9.38314C10.2329 9.54932 10.0306 9.63242 9.79233 9.63242C9.5603 9.63242 9.35962 9.54932 9.1903 9.38314C9.02098 9.21696 8.93632 9.01471 8.93632 8.77641C8.93632 8.53811 9.02098 8.33586 9.1903 8.16968C9.35962 8.0035 9.5603 7.9204 9.79233 7.9204C10.0306 7.9204 10.2329 8.0035 10.3991 8.16968C10.5652 8.33586 10.6483 8.53811 10.6483 8.77641Z" fill="#999999"/>
</svg>
